<svg xmlns="http://www.w3.org/2000/svg" viewBox="0 0 64 64"><path d="M56.54 48.43h-4.25V44c0-.93-.76-1.69-1.69-1.69H33.7v-4.19h1.45c.52 0 .94-.41.94-.94v-3.36c1.21-.33 2.38-.8 3.48-1.42l2.36 2.36c.37.37.97.37 1.34 0l4.43-4.44c.37-.37.37-.96 0-1.33l-2.29-2.3c.66-1.12 1.17-2.31 1.52-3.56h3.19c.52 0 .94-.41.94-.94v-6.28c0-.52-.42-.94-.94-.94h-3.06c-.33-1.3-.83-2.55-1.49-3.73l2.12-2.12a.92.92 0 0 0 .27-.67c0-.24-.09-.49-.27-.66l-4.43-4.44a.948.948 0 0 0-1.34 0l-2.05 2.06c-1.19-.71-2.46-1.24-3.79-1.6V.94c0-.53-.42-.94-.94-.94h-6.28c-.52 0-.94.41-.94.94v2.88c-1.33.36-2.6.89-3.79 1.59l-2.05-2.05a.93.93 0 0 0-.67-.28 1 1 0 0 0-.67.27L16.3 7.8c-.17.17-.27.41-.27.66 0 .25.1.49.27.67l2.13 2.13c-.66 1.18-1.16 2.42-1.49 3.72h-3.06c-.52 0-.94.42-.94.94v6.28c0 .52.42.94.94.94h3.19c.36 1.24.87 2.44 1.52 3.55l-2.3 2.3c-.37.37-.37.97 0 1.34l4.44 4.43c.37.37.96.37 1.33 0l2.36-2.35c1.1.62 2.27 1.09 3.49 1.42v3.36c0 .53.42.94.94.94h1.44v4.19H13.4c-.93 0-1.69.76-1.69 1.69v4.43H7.45c-1.01 0-1.83.82-1.83 1.84v11.9c0 1.01.82 1.84 1.83 1.84h11.91c1.01 0 1.83-.83 1.83-1.84v-11.9c0-1.02-.82-1.84-1.83-1.84H15.1V45.7h33.8v2.74h-4.25c-1.02 0-1.84.82-1.84 1.84v11.9c0 1.01.82 1.84 1.84 1.84h11.9c1.02 0 1.84-.83 1.84-1.84v-11.9a1.852 1.852 0 0 0-1.85-1.85zM32 24.95c-3.25 0-5.88-2.64-5.88-5.89 0-3.25 2.64-5.89 5.88-5.89s5.89 2.64 5.89 5.89c0 3.25-2.65 5.89-5.89 5.89z"/></svg>